<?xml version="1.0" encoding="UTF-8" standalone="no"?>
<!-- Created with Inkscape (http://www.inkscape.org/) -->

<svg
   xmlns:dc="http://purl.org/dc/elements/1.1/"
   xmlns:cc="http://creativecommons.org/ns#"
   xmlns:rdf="http://www.w3.org/1999/02/22-rdf-syntax-ns#"
   xmlns:svg="http://www.w3.org/2000/svg"
   xmlns="http://www.w3.org/2000/svg"
   xmlns:sodipodi="http://sodipodi.sourceforge.net/DTD/sodipodi-0.dtd"
   xmlns:inkscape="http://www.inkscape.org/namespaces/inkscape"
   width="210mm"
   height="297mm"
   viewBox="0 0 210 297"
   version="1.1"
   id="svg8"
   inkscape:version="0.92.5 (2060ec1f9f, 2020-04-08)"
   sodipodi:docname="light.svg">
  <defs
     id="defs2" />
  <sodipodi:namedview
     id="base"
     pagecolor="#ffffff"
     bordercolor="#666666"
     borderopacity="1.0"
     inkscape:pageopacity="0.0"
     inkscape:pageshadow="2"
     inkscape:zoom="0.35"
     inkscape:cx="-85.714286"
     inkscape:cy="560"
     inkscape:document-units="mm"
     inkscape:current-layer="layer1"
     showgrid="false"
     inkscape:window-width="1920"
     inkscape:window-height="1015"
     inkscape:window-x="0"
     inkscape:window-y="0"
     inkscape:window-maximized="1" />
  <metadata
     id="metadata5">
    <rdf:RDF>
      <cc:Work
         rdf:about="">
        <dc:format>image/svg+xml</dc:format>
        <dc:type
           rdf:resource="http://purl.org/dc/dcmitype/StillImage" />
        <dc:title></dc:title>
      </cc:Work>
    </rdf:RDF>
  </metadata>
  <g
     inkscape:label="Layer 1"
     inkscape:groupmode="layer"
     id="layer1">
    <path
       d="m 112.89496,182.2123 c -3.6361,-1.29753 -4.33107,-6.51265 -1.1483,-8.6191 0.79552,-0.52635 2.19429,-0.87383 7.58758,-1.88244 6.7843,-1.2693 8.44096,-1.4351 9.67074,-0.97084 1.56704,0.59267 3.07377,2.74109 3.08541,4.40163 0.012,1.78929 -1.13878,3.76839 -2.59434,4.45947 -0.92781,0.44027 -13.94255,2.93301 -15.13847,2.9002 -0.39018,-0.012 -1.04846,-0.14075 -1.46262,-0.28892 z m -8.581,-12.98051 c -2.05989,-0.93487 -3.26604,-3.62304 -2.60915,-5.81522 0.40074,-1.33809 1.58468,-2.61903 2.85609,-3.09035 1.18534,-0.43956 28.04772,-5.41762 29.18755,-5.40881 1.61643,0.012 3.77051,1.53848 4.35506,3.08542 0.43004,1.13841 0.31503,2.9263 -0.2653,4.12504 -1.02799,2.12373 -0.88723,2.08069 -16.58344,4.9749 -7.77278,1.43263 -14.5278,2.60526 -15.01111,2.60597 -0.48296,-3.5e-4 -1.35115,-0.21448 -1.9297,-0.47695 z m -4.18503,-13.43243 c -3.879506,-1.38359 -4.250281,-7.15471 -0.571146,-8.88897 0.576096,-0.27164 4.447846,-1.12043 8.693886,-1.90571 4.21043,-0.77859 11.42478,-2.11668 16.03206,-2.97252 l 8.3764,-1.55717 0.82691,-3.00956 c 1.8013,-6.55464 3.77756,-10.69168 8.50798,-17.81006 5.01828,-7.55195 6.8672,-11.07268 8.28114,-15.76889 1.85526,-6.161636 2.04118,-13.379492 0.502,-19.461757 -2.75697,-10.895952 -12.67712,-19.482585 -25.77088,-22.308356 -2.90866,-0.62759 -9.53174,-0.623003 -12.48839,0.0093 -3.27908,0.70063 -6.35849,1.794234 -9.66332,3.432894 -9.025156,4.474299 -15.022048,12.120434 -16.536174,21.084911 -1.551873,9.187078 0.0093,17.597338 4.829193,26.003008 0.941564,1.64254 3.10304,5.07579 4.803087,7.62955 4.471484,6.71726 7.782314,13.99264 7.782314,17.10133 0,2.67053 -2.05636,4.735 -4.717368,4.735 -2.796132,0 -4.056257,-1.19945 -5.424689,-5.16574 -1.365246,-3.95571 -2.749198,-6.57792 -6.261826,-11.86503 -5.099781,-7.67539 -7.385431,-11.98423 -9.142278,-17.23395 -3.095986,-9.249519 -3.056119,-20.454498 0.104134,-29.298308 4.595312,-12.86057 16.694935,-22.673477 32.133957,-26.061211 3.81284,-0.836804 11.25013,-0.962031 15.18822,-0.256121 9.74481,1.746607 18.29725,6.087558 24.79438,12.584692 5.71537,5.71537 9.14156,12.259074 10.58724,20.2206 0.79694,4.388218 0.80011,12.301051 0.005,16.515368 -1.36561,7.25489 -4.21042,13.54107 -10.3463,22.86468 -5.1333,7.79959 -6.47244,10.70332 -8.27621,17.94552 -1.07703,4.32366 -2.14913,5.98067 -4.50922,6.96951 -0.8756,0.36654 -35.30015,6.84462 -36.26324,6.82416 -0.27941,-0.005 -0.94474,-0.16686 -1.47814,-0.35701 h 3.4e-4 z m -33.750376,-7.44999 c -1.327872,-0.65723 -2.318476,-2.07893 -2.486397,-3.56836 -0.238828,-2.11809 0.136534,-2.67265 5.428222,-8.02502 2.707225,-2.73898 5.341076,-5.19538 5.853304,-5.45926 3.495695,-1.80234 7.689885,1.73074 6.464334,5.4455 -0.431455,1.30705 -9.600533,10.88853 -11.127713,11.62796 -1.371965,0.66428 -2.762264,0.65723 -4.13175,-0.0208 z m 100.986226,-0.0903 c -0.74613,-0.26601 -2.27967,-1.64396 -6.06358,-5.44797 -5.56826,-5.59897 -5.84906,-6.02759 -5.49523,-8.38733 0.33691,-2.24685 3.06812,-4.18502 5.23735,-3.71724 1.61714,0.34854 2.65325,1.17687 7.10286,5.67481 4.50464,4.55367 5.14106,5.35659 5.47373,6.90141 0.42121,1.95617 -1.21498,4.50818 -3.25368,5.07474 -1.27883,0.35454 -1.77484,0.33796 -3.00145,-0.0984 z M 45.378654,101.59695 c -0.935217,-0.41769 -2.015782,-1.55082 -2.368196,-2.484274 -0.366895,-0.970844 -0.334788,-2.53577 0.072,-3.509441 0.407095,-0.974377 1.916288,-2.354103 2.865625,-2.619744 0.377122,-0.105467 4.525805,-0.191561 9.219171,-0.191561 h 8.533729 l 1.091151,0.624776 c 3.075879,1.760728 3.127746,6.267826 0.09133,7.974224 -0.984258,0.55316 -1.139832,0.56197 -9.876054,0.55209 -6.856269,-0.009 -9.047024,-0.0864 -9.62876,-0.34607 z m 127.221716,-0.26917 c -1.20333,-0.72108 -1.70215,-1.400527 -2.09233,-2.84904 -0.53023,-1.969568 0.44838,-4.120817 2.33186,-5.128354 1.02237,-0.546816 1.23545,-0.559162 9.57938,-0.559162 4.69338,0 8.83535,0.08467 9.20471,0.188387 1.63972,0.460029 3.22406,2.620091 3.21347,4.382232 -0.012,1.807634 -1.27142,3.730627 -2.83422,4.322947 -0.45227,0.17146 -3.88587,0.2667 -9.53775,0.2653 l -8.83077,-0.003 -1.03435,-0.62019 z M 73.991519,62.446928 C 72.929661,61.9795 61.140132,50.375172 60.54817,49.214887 c -1.823168,-3.573655 1.549406,-7.560058 5.484302,-6.48268 1.056218,0.288934 1.857035,0.992377 7.515605,6.59944 6.898948,6.835802 7.322283,7.411898 6.990682,9.510226 -0.470615,2.978159 -3.802962,4.813327 -6.54724,3.605055 z m 85.838961,-0.121067 c -1.19417,-0.548576 -1.72933,-1.108085 -2.24933,-2.35269 -0.45015,-1.077738 -0.496,-2.372436 -0.12,-3.37116 0.35667,-0.945791 12.44112,-13.089868 13.46735,-13.534016 1.68875,-0.730603 4.21712,-0.226134 5.3947,1.076324 0.62971,0.69639 1.20263,2.203463 1.19663,3.1468 -0.003,0.452962 -0.21661,1.275645 -0.4745,1.827741 -0.57114,1.224152 -12.3575,13.017907 -13.40384,13.412668 -1.06009,0.399695 -2.68394,0.312215 -3.81107,-0.205667 z m -42.2298,-19.174199 c -1.0668,-0.405695 -2.30576,-1.590327 -2.73333,-2.613384 -0.26565,-0.635709 -0.34078,-2.812358 -0.34078,-9.869001 0,-8.406021 0.0343,-9.120397 0.47765,-9.985068 0.57644,-1.124297 1.41042,-1.934287 2.36257,-2.294822 0.99871,-0.378535 3.08541,-0.331962 3.88657,0.0864 0.91018,0.475549 1.96605,1.620313 2.29342,2.485677 0.17039,0.451562 0.2667,3.977243 0.2667,9.772347 0,8.724929 -0.0208,9.106637 -0.53234,10.165335 -0.30339,0.626883 -0.9338,1.365606 -1.46615,1.717674 -1.10879,0.733429 -3.04555,0.97931 -4.21431,0.534815 z"
       inkscape:connector-curvature="0"
       sodipodi:nodetypes="cscccccccccsccccccccccccsccccccsccsssscsccsccsscccccccccccccccccccccccccscccccccccscccccccccccsccccccccsccccsccccscccc"
       id="path279"
       style="stroke-width:0.35277921;fill:#ffffff;fill-opacity:1" />
  </g>
  <style
     id="style238"
     type="text/css">
	.st0{fill:#FFFFFF;stroke:#000000;stroke-width:8;stroke-miterlimit:10;}
	.st1{fill:#FFFFFF;}
</style>
  <style
     id="style470"
     type="text/css">
	.st0{fill:#FFFFFF;stroke:#000000;stroke-width:8;stroke-miterlimit:10;}
	.st1{fill:#FFFFFF;}
</style>
</svg>
