<?xml version="1.0" encoding="UTF-8" standalone="no"?>
<!-- Created with Inkscape (http://www.inkscape.org/) -->

<svg
   xmlns:dc="http://purl.org/dc/elements/1.1/"
   xmlns:cc="http://creativecommons.org/ns#"
   xmlns:rdf="http://www.w3.org/1999/02/22-rdf-syntax-ns#"
   xmlns:svg="http://www.w3.org/2000/svg"
   xmlns="http://www.w3.org/2000/svg"
   xmlns:sodipodi="http://sodipodi.sourceforge.net/DTD/sodipodi-0.dtd"
   xmlns:inkscape="http://www.inkscape.org/namespaces/inkscape"
   width="210mm"
   height="297mm"
   viewBox="0 0 210 297"
   version="1.1"
   id="svg8"
   inkscape:version="0.92.5 (2060ec1f9f, 2020-04-08)"
   sodipodi:docname="move.svg">
  <defs
     id="defs2" />
  <sodipodi:namedview
     id="base"
     pagecolor="#ffffff"
     bordercolor="#666666"
     borderopacity="1.0"
     inkscape:pageopacity="0.0"
     inkscape:pageshadow="2"
     inkscape:zoom="0.35"
     inkscape:cx="-85.714286"
     inkscape:cy="560"
     inkscape:document-units="mm"
     inkscape:current-layer="layer1"
     showgrid="false"
     inkscape:window-width="1920"
     inkscape:window-height="1015"
     inkscape:window-x="0"
     inkscape:window-y="0"
     inkscape:window-maximized="1" />
  <metadata
     id="metadata5">
    <rdf:RDF>
      <cc:Work
         rdf:about="">
        <dc:format>image/svg+xml</dc:format>
        <dc:type
           rdf:resource="http://purl.org/dc/dcmitype/StillImage" />
        <dc:title></dc:title>
      </cc:Work>
    </rdf:RDF>
  </metadata>
  <g
     inkscape:label="Layer 1"
     inkscape:groupmode="layer"
     id="layer1">
    <g
       id="g1551"
       transform="matrix(0.47657574,0,0,0.47657574,-39.450924,-2.2215285)"
       style="fill:#ffffff;fill-opacity:1">
	<path
   id="path1543"
   d="m 245.018,539.731 c -9.501,-2.288 -19.465,-3.432 -28.42,-7.065 -36.087,-14.64 -57.875,-41.449 -63.969,-80.03 -1.778,-11.26 -1.107,-22.926 -1.322,-34.409 -0.186,-9.957 0.092,-19.922 -0.068,-29.881 -0.223,-13.803 5.698,-23.834 17.67,-30.656 18.994,-10.824 37.862,-21.87 56.78,-32.829 3.517,-2.038 7.042,-4.061 10.521,-6.162 13.013,-7.856 27.631,-6.246 38.57,4.279 0.491,0.472 1.017,0.908 2.331,2.075 0,-2.212 0,-3.649 0,-5.085 0,-20.623 -0.032,-41.246 0.013,-61.869 0.027,-12.197 4.505,-22.325 15.162,-28.72 21.53,-12.918 47.449,1.954 47.831,27.384 0.24,15.99 0.048,31.986 0.048,47.979 10e-4,31.847 0,63.693 0,95.539 0,1.503 0,3.006 0,5.92 4.007,-4.139 7.103,-7.48 10.351,-10.665 21.446,-21.034 51.808,-25.206 76.897,-10.609 8.624,5.017 9.701,12.97 2.586,20.096 -34.894,34.944 -69.712,69.966 -104.784,104.729 -16.636,16.489 -36.711,26.406 -60.128,29.197 -1.091,0.13 -2.152,0.515 -3.227,0.781 -5.616,10e-4 -11.229,10e-4 -16.842,10e-4 z"
   inkscape:connector-curvature="0"
   style="clip-rule:evenodd;fill-rule:evenodd;fill:#ffffff;fill-opacity:1" />

	<path
   id="path1545"
   d="m 309.009,108.631 c 6.166,6.296 12.293,12.63 18.506,18.878 10.085,10.144 20.229,20.229 30.339,30.35 0.943,0.944 1.809,1.966 3.371,3.675 -12.771,0 -24.588,0 -36.728,0 0,15.857 0,31.242 0,46.958 -10.599,0 -20.87,0 -31.625,0 0,-15.505 0,-30.986 0,-46.939 -12.285,0 -24.101,0 -35.917,0 -0.472,-0.629 -0.944,-1.259 -1.417,-1.889 1.37,-0.697 3.027,-1.103 4.067,-2.133 15.337,-15.205 30.596,-30.488 45.857,-45.77 0.972,-0.973 1.807,-2.083 2.705,-3.13 0.28,0 0.562,0 0.842,0 z"
   inkscape:connector-curvature="0"
   style="clip-rule:evenodd;fill-rule:evenodd;fill:#ffffff;fill-opacity:1" />

	<path
   id="path1547"
   d="m 203.991,204.776 c 0,11.875 0,23.484 0,35.731 15.847,0 31.435,0 47.24,0 0,10.809 0,20.973 0,31.616 -15.716,0 -31.203,0 -47.089,0 0,12.187 0,23.906 0,34.871 -17.065,-17.063 -34.307,-34.304 -51.182,-51.177 16.239,-16.243 33.442,-33.449 51.031,-51.041 z"
   inkscape:connector-curvature="0"
   style="clip-rule:evenodd;fill-rule:evenodd;fill:#ffffff;fill-opacity:1" />

	<path
   id="path1549"
   d="m 419.12,307.746 c 0,-11.609 0,-23.31 0,-35.467 -15.908,0 -31.405,0 -47.208,0 0,-10.621 0,-20.781 0,-31.438 15.502,0 30.983,0 47.041,0 0,-12.273 0,-24.076 0,-35.54 17.317,17.288 34.509,34.449 51.395,51.306 -16.512,16.483 -33.732,33.674 -51.228,51.139 z"
   inkscape:connector-curvature="0"
   style="clip-rule:evenodd;fill-rule:evenodd;fill:#ffffff;fill-opacity:1" />

</g>
  </g>
  <style
     id="style238"
     type="text/css">
	.st0{fill:#FFFFFF;stroke:#000000;stroke-width:8;stroke-miterlimit:10;}
	.st1{fill:#FFFFFF;}
</style>
  <style
     id="style470"
     type="text/css">
	.st0{fill:#FFFFFF;stroke:#000000;stroke-width:8;stroke-miterlimit:10;}
	.st1{fill:#FFFFFF;}
</style>
</svg>
