<?xml version="1.0" encoding="UTF-8" standalone="no"?>
<!-- Created with Inkscape (http://www.inkscape.org/) -->

<svg
   xmlns:dc="http://purl.org/dc/elements/1.1/"
   xmlns:cc="http://creativecommons.org/ns#"
   xmlns:rdf="http://www.w3.org/1999/02/22-rdf-syntax-ns#"
   xmlns:svg="http://www.w3.org/2000/svg"
   xmlns="http://www.w3.org/2000/svg"
   xmlns:sodipodi="http://sodipodi.sourceforge.net/DTD/sodipodi-0.dtd"
   xmlns:inkscape="http://www.inkscape.org/namespaces/inkscape"
   width="210mm"
   height="297mm"
   viewBox="0 0 210 297"
   version="1.1"
   id="svg8"
   inkscape:version="0.92.5 (2060ec1f9f, 2020-04-08)"
   sodipodi:docname="undo.svg">
  <defs
     id="defs2" />
  <sodipodi:namedview
     id="base"
     pagecolor="#ffffff"
     bordercolor="#666666"
     borderopacity="1.0"
     inkscape:pageopacity="0.0"
     inkscape:pageshadow="2"
     inkscape:zoom="0.35"
     inkscape:cx="-85.714286"
     inkscape:cy="560"
     inkscape:document-units="mm"
     inkscape:current-layer="layer1"
     showgrid="false"
     inkscape:window-width="1920"
     inkscape:window-height="1015"
     inkscape:window-x="0"
     inkscape:window-y="0"
     inkscape:window-maximized="1" />
  <metadata
     id="metadata5">
    <rdf:RDF>
      <cc:Work
         rdf:about="">
        <dc:format>image/svg+xml</dc:format>
        <dc:type
           rdf:resource="http://purl.org/dc/dcmitype/StillImage" />
        <dc:title></dc:title>
      </cc:Work>
    </rdf:RDF>
  </metadata>
  <g
     inkscape:label="Layer 1"
     inkscape:groupmode="layer"
     id="layer1">
    <g
       inkscape:label="Layer 1"
       id="layer1-62"
       transform="matrix(0.35281336,0,0,0.35281336,-8.9455634,-15.556554)"
       style="fill:#ffffff;fill-opacity:1">
	<g
   inkscape:label="Layer 1"
   transform="matrix(1.1226563,0,0,1.1226563,19.117993,11.985301)"
   id="layer1-6"
   style="fill:#ffffff;fill-opacity:1">
		<g
   id="g2084"
   style="fill:#ffffff;fill-opacity:1">
			<path
   id="path2082"
   d="m 107.789,277.873 c 2.022,-2.614 3.613,-5.775 6.13,-7.762 45.104,-35.612 90.315,-71.09 135.531,-106.561 1.744,-1.368 3.633,-2.73 5.678,-3.505 6.588,-2.495 13.488,1.517 14.741,8.429 0.331,1.83 0.447,3.722 0.45,5.585 0.032,19.495 0.02,38.99 0.02,58.485 0,1.47 0,2.941 0,5.437 8.544,0 16.767,-0.284 24.963,0.05 33.431,1.364 66.447,5.352 98.226,16.55 21.548,7.594 41.311,18.271 57.887,34.249 17.843,17.199 29.11,38.161 35.035,62.099 5.493,22.192 6.26,44.703 4.363,67.375 -2.13,25.468 -7.366,50.351 -14.254,74.917 -0.364,1.301 -0.841,2.57 -1.044,3.185 0,-5.383 0.034,-11.361 -0.01,-17.34 -0.044,-6.121 0.039,-12.253 -0.289,-18.362 -1.208,-22.497 -5.146,-44.352 -15.513,-64.679 -11.206,-21.975 -28.414,-37.685 -50.317,-48.543 -21.628,-10.722 -44.724,-16.648 -68.542,-19.024 -22.465,-2.241 -45.088,-2.901 -67.642,-4.242 -0.738,-0.044 -1.483,0.057 -2.865,0.118 0,1.474 0,2.906 0,4.339 0,19.121 0.003,38.241 -0.008,57.36 -0.001,1.371 -0.05,2.748 -0.177,4.113 -0.445,4.757 -2.743,8.267 -7.259,10.017 -4.356,1.688 -8.252,0.637 -11.883,-2.217 -17.188,-13.511 -34.422,-26.964 -51.643,-40.433 -28.144,-22.013 -56.328,-43.975 -84.376,-66.109 -2.821,-2.227 -4.822,-5.494 -7.204,-8.279 0.002,-1.751 0.002,-3.502 0.002,-5.252 z"
   inkscape:connector-curvature="0"
   style="clip-rule:evenodd;fill-rule:evenodd;fill:#ffffff;fill-opacity:1" />

		</g>

	</g>

</g>
  </g>
  <style
     id="style238"
     type="text/css">
	.st0{fill:#FFFFFF;stroke:#000000;stroke-width:8;stroke-miterlimit:10;}
	.st1{fill:#FFFFFF;}
</style>
  <style
     id="style470"
     type="text/css">
	.st0{fill:#FFFFFF;stroke:#000000;stroke-width:8;stroke-miterlimit:10;}
	.st1{fill:#FFFFFF;}
</style>
</svg>
