<?xml version="1.0" encoding="UTF-8" standalone="no"?>
<!-- Created with Inkscape (http://www.inkscape.org/) -->

<svg
   xmlns:dc="http://purl.org/dc/elements/1.1/"
   xmlns:cc="http://creativecommons.org/ns#"
   xmlns:rdf="http://www.w3.org/1999/02/22-rdf-syntax-ns#"
   xmlns:svg="http://www.w3.org/2000/svg"
   xmlns="http://www.w3.org/2000/svg"
   xmlns:sodipodi="http://sodipodi.sourceforge.net/DTD/sodipodi-0.dtd"
   xmlns:inkscape="http://www.inkscape.org/namespaces/inkscape"
   width="210mm"
   height="297mm"
   viewBox="0 0 210 297"
   version="1.1"
   id="svg8"
   inkscape:version="0.92.5 (2060ec1f9f, 2020-04-08)"
   sodipodi:docname="helpicon.svg">
  <defs
     id="defs2" />
  <sodipodi:namedview
     id="base"
     pagecolor="#ffffff"
     bordercolor="#666666"
     borderopacity="1.0"
     inkscape:pageopacity="0.0"
     inkscape:pageshadow="2"
     inkscape:zoom="0.49497475"
     inkscape:cx="726.84134"
     inkscape:cy="492.04381"
     inkscape:document-units="mm"
     inkscape:current-layer="layer1"
     showgrid="false"
     inkscape:window-width="1920"
     inkscape:window-height="1015"
     inkscape:window-x="0"
     inkscape:window-y="0"
     inkscape:window-maximized="1" />
  <metadata
     id="metadata5">
    <rdf:RDF>
      <cc:Work
         rdf:about="">
        <dc:format>image/svg+xml</dc:format>
        <dc:type
           rdf:resource="http://purl.org/dc/dcmitype/StillImage" />
        <dc:title></dc:title>
      </cc:Work>
    </rdf:RDF>
  </metadata>
  <g
     inkscape:label="Layer 1"
     inkscape:groupmode="layer"
     id="layer1">
    <path
       style="fill:#ffffff;stroke-width:0.29765242;fill-opacity:1"
       d="m 100.73037,295.65141 c -16.819924,-1.71595 -30.556714,-7.18 -42.564282,-16.93074 -8.283409,-6.72652 -15.251461,-15.46736 -20.072513,-25.17932 -3.69911,-7.45181 -6.184059,-15.4275 -7.365779,-23.64122 -0.709469,-4.9313 -0.709469,-15.60671 0,-20.53802 2.394257,-16.64162 9.959855,-31.8456 21.677188,-43.56294 5.989219,-5.98922 12.323359,-10.53955 19.921736,-14.31142 7.451809,-3.69911 15.427507,-6.18405 23.641223,-7.36577 4.931297,-0.70947 15.606707,-0.70947 20.538007,0 16.64162,2.39425 31.84562,9.95985 43.56295,21.67719 5.98922,5.98922 10.53955,12.32335 14.31141,19.92173 3.69911,7.45181 6.18406,15.42749 7.36578,23.64121 0.70947,4.93131 0.70947,15.60672 0,20.53802 -2.39426,16.64162 -9.95985,31.84562 -21.67719,43.56295 -11.542,11.54201 -26.44521,19.06299 -42.61094,21.50386 -3.76324,0.56821 -13.82962,0.98011 -16.72759,0.68447 z m 12.71008,-12.16917 c 9.17415,-1.07316 17.66334,-3.88857 25.46661,-8.44592 8.25622,-4.8219 16.8514,-13.29689 22.1824,-21.87221 11.15644,-17.94599 12.46758,-41.61441 3.3666,-60.77302 -2.17064,-4.56946 -3.64992,-7.01762 -6.75961,-11.18699 -6.1841,-8.2914 -14.54379,-15.15481 -23.92666,-19.64404 -19.04522,-9.11217 -41.758266,-8.10641 -60.202963,2.66587 -3.702665,2.16248 -9.22903,6.50132 -12.687612,9.96124 -5.386757,5.38886 -9.483554,11.16061 -12.713324,17.91111 -9.112183,19.04522 -8.106424,41.75826 2.665868,60.20296 4.821884,8.25622 13.296875,16.8514 21.872197,22.1824 11.773378,7.31913 26.771486,10.63218 40.736494,8.9986 z m -9.74539,-20.413 c -1.27099,-0.36959 -3.31181,-2.19884 -4.082298,-3.65909 -0.910292,-1.72517 -0.910292,-4.90805 0,-6.63321 2.213228,-4.19455 7.807868,-5.33301 11.341928,-2.308 1.8693,1.60006 2.55706,3.11287 2.55706,5.6246 0,1.5681 -0.16096,2.38862 -0.65061,3.31661 -0.81075,1.53653 -2.8229,3.28866 -4.22353,3.67775 -1.27327,0.35371 -3.69339,0.34457 -4.94255,-0.0187 z m 0.0118,-19.4823 c -1.36368,-0.73429 -2.25555,-1.66075 -2.86042,-2.97132 -0.49423,-1.07086 -0.5495,-2.05883 -0.5495,-9.82254 0,-9.74676 0.0884,-10.22081 2.23422,-11.98962 1.23173,-1.0153 1.59128,-1.12929 4.82249,-1.52875 5.52038,-0.68248 9.64904,-4.56788 10.57057,-9.94774 0.8661,-5.05622 -1.87576,-10.23365 -6.62722,-12.51417 -1.78744,-0.8579 -2.17269,-0.92861 -5.06009,-0.92861 -2.88928,0 -3.27149,0.0702 -5.06009,0.93022 -4.081114,1.9622 -6.846005,6.27458 -6.846005,10.67769 0,1.59228 -1.055612,3.60965 -2.483261,4.74572 -1.055518,0.83994 -1.323384,0.91021 -3.469782,0.91021 -2.146399,0 -2.414265,-0.0702 -3.469793,-0.91021 -2.473907,-1.96864 -2.970046,-4.43224 -1.9186,-9.52675 2.292503,-11.10766 11.816704,-18.86109 23.188781,-18.8774 11.6843,-0.0168 21.2579,7.94505 23.43773,19.49182 0.5803,3.07388 0.44853,7.17778 -0.32493,10.12019 -1.94012,7.38055 -7.92726,13.93644 -14.97404,16.39652 l -1.97813,0.69058 -0.14883,5.74377 c -0.16683,6.43872 -0.30661,6.92943 -2.47241,8.67994 -0.96766,0.78213 -1.42369,0.93 -3.12535,1.01351 -1.42031,0.0697 -2.24877,-0.0403 -2.88534,-0.38306 z"
       id="path1116"
       inkscape:connector-curvature="0" />
  </g>
  <style
     id="style238"
     type="text/css">
	.st0{fill:#FFFFFF;stroke:#000000;stroke-width:8;stroke-miterlimit:10;}
	.st1{fill:#FFFFFF;}
</style>
  <style
     id="style470"
     type="text/css">
	.st0{fill:#FFFFFF;stroke:#000000;stroke-width:8;stroke-miterlimit:10;}
	.st1{fill:#FFFFFF;}
</style>
  <style
     type="text/css"
     id="style238-2">
	.st0{fill:#FFFFFF;stroke:#000000;stroke-width:8;stroke-miterlimit:10;}
	.st1{fill:#FFFFFF;}
</style>
  <style
     type="text/css"
     id="style470-7">
	.st0{fill:#FFFFFF;stroke:#000000;stroke-width:8;stroke-miterlimit:10;}
	.st1{fill:#FFFFFF;}
</style>
</svg>
