<?xml version="1.0" encoding="UTF-8" standalone="no"?>
<!-- Created with Inkscape (http://www.inkscape.org/) -->

<svg
   xmlns:dc="http://purl.org/dc/elements/1.1/"
   xmlns:cc="http://creativecommons.org/ns#"
   xmlns:rdf="http://www.w3.org/1999/02/22-rdf-syntax-ns#"
   xmlns:svg="http://www.w3.org/2000/svg"
   xmlns="http://www.w3.org/2000/svg"
   xmlns:sodipodi="http://sodipodi.sourceforge.net/DTD/sodipodi-0.dtd"
   xmlns:inkscape="http://www.inkscape.org/namespaces/inkscape"
   width="210mm"
   height="297mm"
   viewBox="0 0 210 297"
   version="1.1"
   id="svg8"
   inkscape:version="0.92.5 (2060ec1f9f, 2020-04-08)"
   sodipodi:docname="helpicon.svg">
  <defs
     id="defs2" />
  <sodipodi:namedview
     id="base"
     pagecolor="#ffffff"
     bordercolor="#666666"
     borderopacity="1.0"
     inkscape:pageopacity="0.0"
     inkscape:pageshadow="2"
     inkscape:zoom="0.35"
     inkscape:cx="-85.714286"
     inkscape:cy="560"
     inkscape:document-units="mm"
     inkscape:current-layer="layer1"
     showgrid="false"
     inkscape:window-width="1920"
     inkscape:window-height="1015"
     inkscape:window-x="0"
     inkscape:window-y="0"
     inkscape:window-maximized="1" />
  <metadata
     id="metadata5">
    <rdf:RDF>
      <cc:Work
         rdf:about="">
        <dc:format>image/svg+xml</dc:format>
        <dc:type
           rdf:resource="http://purl.org/dc/dcmitype/StillImage" />
        <dc:title></dc:title>
      </cc:Work>
    </rdf:RDF>
  </metadata>
  <g
     inkscape:label="Layer 1"
     inkscape:groupmode="layer"
     id="layer1">
    <path
       d="m 94.958442,180.02084 c -15.959693,-1.51518 -30.419371,-7.51312 -42.518258,-17.63539 -3.024018,-2.53084 -8.547827,-8.2201 -10.811604,-11.13722 -3.192285,-4.11269 -6.196197,-8.91647 -8.455734,-13.52129 -4.00086,-8.15447 -6.075557,-14.97861 -7.354026,-24.19071 -0.601134,-4.32965 -0.601134,-14.526703 0,-18.85635 2.10503,-15.165945 7.863427,-28.276952 17.401149,-39.621598 2.442631,-2.905125 7.623533,-7.978787 10.552658,-10.333937 3.846699,-3.092805 9.353215,-6.571904 14.017996,-8.856495 8.169641,-4.00122 14.987092,-6.07273 24.190374,-7.350145 4.329647,-0.601135 14.526703,-0.601135 18.856353,0 8.89072,1.234015 15.8581,3.310832 23.57019,7.025585 8.39612,4.0439 14.85373,8.716801 21.59427,15.625252 5.74323,5.886463 10.03231,11.9599 13.64405,19.321326 4.00086,8.154465 6.0752,14.978263 7.35403,24.190359 0.60077,4.329647 0.60077,14.526703 0,18.856363 -1.91488,13.79468 -6.71056,25.55208 -14.87456,36.46564 -3.44029,4.59916 -10.28243,11.44341 -14.81598,14.8195 -10.97424,8.17247 -22.75669,12.99847 -36.224,14.8354 -3.40959,0.4646 -12.824903,0.67733 -16.126908,0.36371 z m 12.777278,-16.37103 c 20.07345,-2.2271 37.82632,-14.43923 46.88354,-32.25171 4.56603,-8.97927 6.57932,-17.33023 6.57932,-27.29022 0,-9.945534 -2.01895,-18.330015 -6.56061,-27.248256 -9.10345,-17.875269 -26.80623,-30.064476 -46.9026,-32.294026 -2.87233,-0.318561 -9.781483,-0.318561 -12.653461,0 -22.318517,2.476151 -41.351269,17.083295 -49.498683,37.989995 -2.727684,6.998772 -3.964873,13.72413 -3.964873,21.552287 0,9.94553 2.018604,18.33001 6.560624,27.24823 9.021602,17.71478 26.752938,30.01157 46.530398,32.269 2.650431,0.30232 10.390395,0.3175 13.025645,0.0261 v -0.001 z M 89.376073,146.54006 c -2.189337,-0.56304 -3.755327,-1.8528 -4.603048,-3.79167 -0.703441,-1.60831 -0.914402,-4.77909 -0.504828,-7.5812 0.450854,-3.08399 8.106494,-34.10238 8.707281,-35.279955 0.730948,-1.432989 2.595391,-3.242378 4.035434,-3.91654 2.581271,-1.208268 4.815418,-1.280935 7.582968,-0.2466 1.97343,0.737308 4.22522,3.010618 4.98652,5.034505 1.00965,2.68393 0.75883,4.31624 -2.57387,16.74709 -1.89512,7.07003 -2.90901,11.29314 -2.93899,12.24317 -0.0427,1.34832 0.012,1.50001 0.76093,2.1703 0.65335,0.5842 1.03047,0.72001 1.98156,0.71508 2.31422,-0.012 5.45643,-1.17265 8.31887,-3.07236 0.73836,-0.4907 1.39947,-0.89146 1.46896,-0.89146 0.0692,0 0.20144,0.9772 0.29352,2.171 0.0921,1.1938 0.22754,2.51002 0.30022,2.92418 0.12173,0.6918 -0.0233,0.88476 -1.80835,2.38936 -3.51967,2.97039 -7.11695,5.53757 -9.42835,6.72889 -5.497,2.83494 -13.182982,4.53004 -16.578827,3.65621 z M 102.33856,84.253156 c -2.748137,-0.692495 -5.090581,-2.655711 -6.441023,-5.398569 -0.764828,-1.553283 -0.815268,-1.816096 -0.815268,-4.26614 0,-3.026484 0.37676,-4.37834 1.860203,-6.673517 3.884088,-6.00957 11.262098,-8.240187 16.413358,-4.962875 6.00253,3.819527 7.27676,12.64886 2.49379,17.281548 -1.51976,1.471789 -3.91302,2.892431 -6.00499,3.563765 -1.82245,0.585255 -5.98876,0.838202 -7.50607,0.455788 z"
       inkscape:connector-curvature="0"
       sodipodi:nodetypes="ccccccsscsccscccccscccscccsssccccccsccccccccsccccccccsccccc"
       id="path1315"
       style="stroke-width:0.35277835;fill:#ffffff;fill-opacity:1" />
  </g>
  <style
     id="style238"
     type="text/css">
	.st0{fill:#FFFFFF;stroke:#000000;stroke-width:8;stroke-miterlimit:10;}
	.st1{fill:#FFFFFF;}
</style>
  <style
     id="style470"
     type="text/css">
	.st0{fill:#FFFFFF;stroke:#000000;stroke-width:8;stroke-miterlimit:10;}
	.st1{fill:#FFFFFF;}
</style>
</svg>
