<?xml version="1.0" encoding="UTF-8" standalone="no"?>
<!-- Created with Inkscape (http://www.inkscape.org/) -->

<svg
   xmlns:dc="http://purl.org/dc/elements/1.1/"
   xmlns:cc="http://creativecommons.org/ns#"
   xmlns:rdf="http://www.w3.org/1999/02/22-rdf-syntax-ns#"
   xmlns:svg="http://www.w3.org/2000/svg"
   xmlns="http://www.w3.org/2000/svg"
   xmlns:sodipodi="http://sodipodi.sourceforge.net/DTD/sodipodi-0.dtd"
   xmlns:inkscape="http://www.inkscape.org/namespaces/inkscape"
   width="210mm"
   height="297mm"
   viewBox="0 0 210 297"
   version="1.1"
   id="svg8"
   inkscape:version="0.92.5 (2060ec1f9f, 2020-04-08)"
   sodipodi:docname="unfullscreen.svg">
  <defs
     id="defs2" />
  <sodipodi:namedview
     id="base"
     pagecolor="#ffffff"
     bordercolor="#666666"
     borderopacity="1.0"
     inkscape:pageopacity="0.0"
     inkscape:pageshadow="2"
     inkscape:zoom="0.35"
     inkscape:cx="-85.714286"
     inkscape:cy="560"
     inkscape:document-units="mm"
     inkscape:current-layer="layer1"
     showgrid="false"
     inkscape:window-width="1920"
     inkscape:window-height="1015"
     inkscape:window-x="0"
     inkscape:window-y="0"
     inkscape:window-maximized="1" />
  <metadata
     id="metadata5">
    <rdf:RDF>
      <cc:Work
         rdf:about="">
        <dc:format>image/svg+xml</dc:format>
        <dc:type
           rdf:resource="http://purl.org/dc/dcmitype/StillImage" />
        <dc:title></dc:title>
      </cc:Work>
    </rdf:RDF>
  </metadata>
  <g
     inkscape:label="Layer 1"
     inkscape:groupmode="layer"
     id="layer1">
    <path
       d="m 52.650342,186.89745 c -3.779307,-3.7793 -6.87176,-7.35472 -6.87176,-7.94456 0,-0.59054 5.30648,-6.37257 11.792653,-12.84957 l 11.792666,-11.77537 -6.375759,-6.51546 c -3.835747,-3.9197 -6.107294,-6.78285 -5.701947,-7.18678 0.8502,-0.84738 45.626865,-9.0424 47.708255,-8.7316 3.32388,0.496 3.27484,1.60232 -1.16099,26.18952 -2.33221,12.92753 -4.542013,23.80685 -4.911373,24.17761 -0.40464,0.405 -3.266373,-1.86513 -7.187146,-5.70229 l -6.515453,-6.3754 -11.77536,11.79265 c -6.476293,6.48652 -12.25868,11.79336 -12.84888,11.79336 -0.590546,0 -4.165946,-3.09245 -7.944906,-6.87176 z m 117.448888,-5.01192 -11.88367,-11.88366 -6.44737,6.43254 c -3.62691,3.6188 -6.72571,6.1528 -7.08413,5.79332 -0.82408,-0.82761 -9.00112,-45.64521 -8.69774,-47.67438 0.50519,-3.3835 1.5928,-3.33587 26.22551,1.14193 12.90743,2.34633 23.74935,4.54484 24.09365,4.88563 0.34362,0.34113 -2.2553,3.53236 -5.77602,7.0926 l -6.40115,6.47417 11.94681,11.96269 c 9.51302,9.52642 11.85334,12.25832 11.4868,13.41262 -0.59866,1.88806 -13.2281,14.24622 -14.55808,14.24622 -0.56197,-3.6e-4 -6.36834,-5.34776 -12.90461,-11.88368 z M 79.739088,99.545789 c -11.978213,-2.222146 -22.081773,-4.343746 -22.452546,-4.71416 -0.4064,-0.4064 1.85632,-3.260026 5.70196,-7.189613 L 69.364248,81.126563 57.571235,69.35119 C 51.085422,62.874897 45.778582,57.092524 45.778582,56.502324 c 0,-1.400174 13.416493,-14.816667 14.816666,-14.816667 0.5902,0 6.372227,5.30648 12.84888,11.792653 l 11.77536,11.793013 6.515453,-6.375759 c 3.950413,-3.865734 6.78216,-6.1094 7.19244,-5.698774 0.372533,0.372534 2.580209,11.255373 4.907129,24.18504 3.10234,17.240946 4.02626,23.83331 3.4657,24.72867 -0.43251,0.69144 -1.85244,1.27598 -3.27343,1.3483 -1.37972,0.0692 -12.309119,-1.69085 -24.287692,-3.913011 z m 56.994072,3.268131 c -0.48754,-0.48753 -0.88618,-1.58044 -0.88618,-2.42957 0,-2.959107 8.20702,-46.522573 8.89424,-47.213666 0.4325,-0.434974 3.10832,1.71944 7.12998,5.741106 l 6.43714,6.437133 11.92848,-11.912239 c 9.49784,-9.484787 12.2241,-11.818413 13.37804,-11.451867 1.87853,0.596187 14.24622,13.224933 14.24622,14.546787 0,0.555626 -5.33682,6.354226 -11.85969,12.885906 l -11.85968,11.87592 5.95348,5.794013 c 3.27448,3.186293 5.95383,6.4008 5.95383,7.142346 0,0.741894 -0.18662,1.34832 -0.41416,1.34832 -0.2279,0 -10.42987,1.827387 -22.67162,4.060467 -24.10001,4.397374 -24.91034,4.495094 -26.23008,3.175344 z"
       inkscape:connector-curvature="0"
       sodipodi:nodetypes="cssccccccscssccccccccscccscscccsssccccsccscscccccssccssccc"
       id="path445"
       style="stroke-width:0.35277775;fill:#ffffff;fill-opacity:1" />
  </g>
  <style
     id="style238"
     type="text/css">
	.st0{fill:#FFFFFF;stroke:#000000;stroke-width:8;stroke-miterlimit:10;}
	.st1{fill:#FFFFFF;}
</style>
  <style
     id="style470"
     type="text/css">
	.st0{fill:#FFFFFF;stroke:#000000;stroke-width:8;stroke-miterlimit:10;}
	.st1{fill:#FFFFFF;}
</style>
</svg>
