<?xml version="1.0" encoding="UTF-8" standalone="no"?>
<!-- Created with Inkscape (http://www.inkscape.org/) -->

<svg
   xmlns:dc="http://purl.org/dc/elements/1.1/"
   xmlns:cc="http://creativecommons.org/ns#"
   xmlns:rdf="http://www.w3.org/1999/02/22-rdf-syntax-ns#"
   xmlns:svg="http://www.w3.org/2000/svg"
   xmlns="http://www.w3.org/2000/svg"
   xmlns:sodipodi="http://sodipodi.sourceforge.net/DTD/sodipodi-0.dtd"
   xmlns:inkscape="http://www.inkscape.org/namespaces/inkscape"
   width="210mm"
   height="297mm"
   viewBox="0 0 210 297"
   version="1.1"
   id="svg8"
   inkscape:version="0.92.5 (2060ec1f9f, 2020-04-08)"
   sodipodi:docname="zoomin.svg">
  <defs
     id="defs2" />
  <sodipodi:namedview
     id="base"
     pagecolor="#ffffff"
     bordercolor="#666666"
     borderopacity="1.0"
     inkscape:pageopacity="0.0"
     inkscape:pageshadow="2"
     inkscape:zoom="0.35"
     inkscape:cx="-85.714286"
     inkscape:cy="560"
     inkscape:document-units="mm"
     inkscape:current-layer="layer1"
     showgrid="false"
     inkscape:window-width="1920"
     inkscape:window-height="1015"
     inkscape:window-x="0"
     inkscape:window-y="0"
     inkscape:window-maximized="1" />
  <metadata
     id="metadata5">
    <rdf:RDF>
      <cc:Work
         rdf:about="">
        <dc:format>image/svg+xml</dc:format>
        <dc:type
           rdf:resource="http://purl.org/dc/dcmitype/StillImage" />
        <dc:title></dc:title>
      </cc:Work>
    </rdf:RDF>
  </metadata>
  <g
     inkscape:label="Layer 1"
     inkscape:groupmode="layer"
     id="layer1">
    <g
       id="g1724"
       transform="matrix(0.35270269,0,0,0.35270269,-10.011116,7.9410287)"
       style="fill:#ffffff;fill-opacity:1">
	<path
   id="path1720"
   d="m 476.721,554.731 c -3.368,0 -6.735,0 -10.104,0 -12.366,-2.073 -21.446,-9.321 -30.003,-18.011 -26.182,-26.588 -52.703,-52.841 -79.069,-79.246 -4.443,-4.449 -8.773,-9.013 -13.115,-13.48 -1.542,0.813 -2.539,1.304 -3.504,1.852 -38.806,22.058 -80.374,29.614 -123.729,19.337 -70.24,-16.651 -114.194,-61.092 -131.954,-131.102 -2.156,-8.497 -2.874,-17.359 -4.259,-26.052 0,-7.578 0,-15.156 0,-22.734 0.243,-1.21 0.512,-2.417 0.724,-3.633 1.75,-10.049 2.492,-20.398 5.392,-30.102 19.747,-66.098 63.238,-107.567 130.391,-123.82 8.235,-1.993 16.764,-2.768 25.157,-4.107 7.297,0 14.595,0 21.892,0 8.977,1.393 18.06,2.307 26.915,4.252 113.723,24.973 170.448,153.955 112.224,254.936 -0.746,1.293 -1.377,2.653 -2.067,3.992 19.245,19.264 38.279,38.304 57.3,57.358 14.269,14.295 28.977,28.186 42.669,43.013 19.762,21.397 10.598,55.761 -16.875,65.216 -2.62,0.898 -5.322,1.559 -7.985,2.331 z M 253.78,419.103 c 67.487,0.12 122.279,-54.482 122.582,-122.159 0.302,-67.387 -54.454,-122.46 -122.01,-122.717 -67.409,-0.256 -122.568,54.516 -122.798,121.938 -0.23,67.69 54.578,122.818 122.226,122.938 z"
   inkscape:connector-curvature="0"
   style="clip-rule:evenodd;fill-rule:evenodd;fill:#ffffff;fill-opacity:1" />

	<path
   id="path1722"
   d="m 234.379,366.402 c 0,-17.314 0,-34.352 0,-51.698 -1.905,-0.086 -3.401,-0.211 -4.896,-0.212 -14.303,-0.015 -28.607,-0.086 -42.91,0.051 -3.15,0.03 -4.449,-0.627 -4.371,-4.145 0.235,-10.513 0.2,-21.035 0.016,-31.548 -0.058,-3.263 0.817,-4.343 4.217,-4.299 14.301,0.183 28.606,0.077 42.909,0.077 1.515,0 3.03,0 4.995,0 0,-17.421 0,-34.457 0,-51.917 1.773,-0.113 3.117,-0.272 4.461,-0.274 10.377,-0.021 20.756,0.122 31.129,-0.086 3.447,-0.069 4.566,0.869 4.517,4.43 -0.194,14.16 -0.08,28.325 -0.079,42.488 0,1.534 0,3.067 0,5.162 17.229,0 34.239,0 51.59,0 0.175,1.709 0.398,2.902 0.401,4.096 0.028,10.657 -0.089,21.316 0.082,31.971 0.05,3.127 -0.877,4.088 -4.039,4.054 -14.302,-0.156 -28.606,-0.067 -42.91,-0.067 -1.52,0 -3.039,0 -5.19,0 0,17.465 0,34.601 0,51.919 -13.587,-0.002 -26.54,-0.002 -39.922,-0.002 z"
   inkscape:connector-curvature="0"
   style="clip-rule:evenodd;fill-rule:evenodd;fill:#ffffff;fill-opacity:1" />

</g>
  </g>
  <style
     id="style238"
     type="text/css">
	.st0{fill:#FFFFFF;stroke:#000000;stroke-width:8;stroke-miterlimit:10;}
	.st1{fill:#FFFFFF;}
</style>
  <style
     id="style470"
     type="text/css">
	.st0{fill:#FFFFFF;stroke:#000000;stroke-width:8;stroke-miterlimit:10;}
	.st1{fill:#FFFFFF;}
</style>
</svg>
