<svg id="Layer_1" data-name="Layer 1" xmlns="http://www.w3.org/2000/svg"><g id="Group_6" data-name="Group 6"><g id="Cuneiform_Digital_Library_Initiative" data-name="Cuneiform Digital Library Initiative"><path id="Path_628" data-name="Path 628" d="M185.23,12.76a5.63,5.63,0,0,0-4.47,1.89,7.6,7.6,0,0,0-1.62,5.15,7.74,7.74,0,0,0,1.57,5.2,5.62,5.62,0,0,0,4.5,1.83,15.39,15.39,0,0,0,4.09-.65v1.75a12.68,12.68,0,0,1-4.4.66,7.41,7.41,0,0,1-5.85-2.3A9.47,9.47,0,0,1,177,19.77a10.33,10.33,0,0,1,1-4.64,7.3,7.3,0,0,1,2.86-3.07A8.81,8.81,0,0,1,185.25,11,10.64,10.64,0,0,1,190,12l-.84,1.71A9.26,9.26,0,0,0,185.23,12.76Z" fill="#212529"/><path id="Path_629" data-name="Path 629" d="M194.57,15.52v8.33a3.39,3.39,0,0,0,.71,2.35,2.93,2.93,0,0,0,2.24.77,3.63,3.63,0,0,0,2.94-1.1,5.55,5.55,0,0,0,.94-3.6V15.52h1.94V28.36h-1.6l-.29-1.72h-.1a3.82,3.82,0,0,1-1.66,1.45,5.48,5.48,0,0,1-2.42.5,4.91,4.91,0,0,1-3.51-1.11,4.74,4.74,0,0,1-1.16-3.56v-8.4Z" fill="#212529"/><path id="Path_630" data-name="Path 630" d="M216.27,28.36V20.05a3.31,3.31,0,0,0-.72-2.34,2.91,2.91,0,0,0-2.23-.77,3.68,3.68,0,0,0-3,1.09,5.46,5.46,0,0,0-.93,3.6v6.73h-2V15.52h1.58l.32,1.76h.09a4,4,0,0,1,1.68-1.47,5.25,5.25,0,0,1,2.4-.52A4.82,4.82,0,0,1,217,16.41,4.72,4.72,0,0,1,218.21,20v8.38Z" fill="#212529"/><path id="Path_631" data-name="Path 631" d="M227.65,28.6a5.94,5.94,0,0,1-4.5-1.74,6.67,6.67,0,0,1-1.64-4.81A7.39,7.39,0,0,1,223,17.11a5.07,5.07,0,0,1,4.11-1.82A4.81,4.81,0,0,1,231,16.88a6.06,6.06,0,0,1,1.4,4.18v1.23h-8.85a5.11,5.11,0,0,0,1.14,3.44,4,4,0,0,0,3.06,1.17,10.33,10.33,0,0,0,4.1-.87v1.73a10.45,10.45,0,0,1-2,.64A11,11,0,0,1,227.65,28.6Zm-.53-11.69a3.2,3.2,0,0,0-2.47,1,4.64,4.64,0,0,0-1.08,2.79h6.72a4.34,4.34,0,0,0-.82-2.81A2.89,2.89,0,0,0,227.12,16.91Z" fill="#212529"/><path id="Path_632" data-name="Path 632" d="M237.64,28.36H235.7V15.52h1.94ZM235.54,12a1.23,1.23,0,0,1,.32-1,1.19,1.19,0,0,1,1.63,0,1.24,1.24,0,0,1,.34,1,1.26,1.26,0,0,1-.34,1,1.19,1.19,0,0,1-1.63,0A1.34,1.34,0,0,1,235.54,12Z" fill="#212529"/><path id="Path_633" data-name="Path 633" d="M247.56,17h-3.27V28.36h-1.95V17H240v-.88l2.3-.7v-.72q0-4.73,4.14-4.73a8.44,8.44,0,0,1,2.39.41l-.5,1.56a6.28,6.28,0,0,0-1.92-.36,1.87,1.87,0,0,0-1.63.73,4.1,4.1,0,0,0-.53,2.35v.83h3.27Z" fill="#212529"/><path id="Path_634" data-name="Path 634" d="M261,21.93a7.15,7.15,0,0,1-1.58,4.91A5.63,5.63,0,0,1,255,28.6a5.75,5.75,0,0,1-3.06-.81,5.35,5.35,0,0,1-2.07-2.32,8.14,8.14,0,0,1-.72-3.54A7.06,7.06,0,0,1,250.76,17a5.55,5.55,0,0,1,4.36-1.76,5.41,5.41,0,0,1,4.27,1.8A7.06,7.06,0,0,1,261,21.93Zm-9.79,0a6.08,6.08,0,0,0,1,3.75,3.89,3.89,0,0,0,5.51.28,2.37,2.37,0,0,0,.28-.27,6.1,6.1,0,0,0,1-3.76,6,6,0,0,0-1-3.72,4,4,0,0,0-5.59-.23l-.21.21A6,6,0,0,0,251.2,21.93Z" fill="#212529"/><path id="Path_635" data-name="Path 635" d="M270.27,15.29a7.14,7.14,0,0,1,1.53.14l-.26,1.8a6.81,6.81,0,0,0-1.41-.18,3.44,3.44,0,0,0-2.67,1.27,4.6,4.6,0,0,0-1.1,3.15v6.89h-1.95V15.52H266l.22,2.38h.1A5.62,5.62,0,0,1,268.06,16,3.86,3.86,0,0,1,270.27,15.29Z" fill="#212529"/><path id="Path_636" data-name="Path 636" d="M290.58,28.36V20a3.44,3.44,0,0,0-.66-2.3,2.53,2.53,0,0,0-2-.78A3.31,3.31,0,0,0,285.2,18a5,5,0,0,0-.87,3.21v7.17h-1.94V20a3.44,3.44,0,0,0-.66-2.3,2.54,2.54,0,0,0-2.05-.78A3.2,3.2,0,0,0,277,18a6,6,0,0,0-.85,3.59v6.74h-1.94V15.52h1.58l.32,1.76h.09a3.78,3.78,0,0,1,1.55-1.47,4.6,4.6,0,0,1,2.25-.52c2,0,3.32.72,3.93,2.18h.1a4.12,4.12,0,0,1,1.66-1.6,5.13,5.13,0,0,1,2.49-.58,4.31,4.31,0,0,1,3.26,1.12A5,5,0,0,1,292.53,20v8.38Z" fill="#212529"/><path id="Path_637" data-name="Path 637" d="M316.75,19.63a8.68,8.68,0,0,1-2.31,6.49c-1.53,1.5-3.74,2.24-6.62,2.24h-4.75V11.23h5.25a8.4,8.4,0,0,1,6.22,2.22A8.37,8.37,0,0,1,316.75,19.63Zm-2.11.07a6.91,6.91,0,0,0-1.69-5,6.72,6.72,0,0,0-5-1.7h-2.9V26.64h2.42a7.38,7.38,0,0,0,5.36-1.75,7,7,0,0,0,1.8-5.19Z" fill="#212529"/><path id="Path_638" data-name="Path 638" d="M322.24,28.36h-1.95V15.52h1.95ZM320.12,12a1.27,1.27,0,0,1,.33-1,1.09,1.09,0,0,1,.82-.32,1.17,1.17,0,0,1,.81.32,1.28,1.28,0,0,1,.34,1,1.3,1.3,0,0,1-.34,1,1.17,1.17,0,0,1-.81.32,1.13,1.13,0,0,1-.82-.32A1.31,1.31,0,0,1,320.12,12Z" fill="#212529"/><path id="Path_639" data-name="Path 639" d="M336.87,15.52v1.23l-2.38.28a4.23,4.23,0,0,1,.84,2.57,3.78,3.78,0,0,1-1.29,3,5.15,5.15,0,0,1-3.54,1.12,6.35,6.35,0,0,1-1.07-.09,1.91,1.91,0,0,0-1.25,1.65.89.89,0,0,0,.44.79,3.3,3.3,0,0,0,1.49.24h2.27a5.13,5.13,0,0,1,3.2.88,3,3,0,0,1,1.12,2.56A3.61,3.61,0,0,1,335,33a9,9,0,0,1-5,1.13,6.88,6.88,0,0,1-3.89-.94,3,3,0,0,1-1.36-2.65,3,3,0,0,1,.75-2,3.73,3.73,0,0,1,2.11-1.16,2.17,2.17,0,0,1-.83-.7,1.84,1.84,0,0,1-.33-1.09,2,2,0,0,1,.38-1.23,4,4,0,0,1,1.18-1,3.46,3.46,0,0,1-1.63-1.39,4.17,4.17,0,0,1-.62-2.25A4.16,4.16,0,0,1,327,16.43a5.13,5.13,0,0,1,3.59-1.14,6.59,6.59,0,0,1,1.82.23Zm-10.24,15a1.73,1.73,0,0,0,.87,1.58,4.91,4.91,0,0,0,2.52.54,6.87,6.87,0,0,0,3.62-.74,2.23,2.23,0,0,0,1.19-2,1.59,1.59,0,0,0-.65-1.45,5,5,0,0,0-2.42-.4h-2.33a3.07,3.07,0,0,0-2.07.63A2.23,2.23,0,0,0,326.63,30.52Zm1.05-10.89a2.63,2.63,0,0,0,.76,2,3,3,0,0,0,2.12.69q2.85,0,2.85-2.76a2.56,2.56,0,0,0-2.16-2.9,2.89,2.89,0,0,0-.72,0,2.86,2.86,0,0,0-2.11.74,3,3,0,0,0-.74,2.19Z" fill="#212529"/><path id="Path_640" data-name="Path 640" d="M341.45,28.36H339.5V15.52h1.95ZM339.34,12a1.23,1.23,0,0,1,.32-1,1.11,1.11,0,0,1,.82-.32,1.17,1.17,0,0,1,.81.32,1.24,1.24,0,0,1,.34,1,1.26,1.26,0,0,1-.34,1,1.17,1.17,0,0,1-.81.32,1.15,1.15,0,0,1-.82-.32A1.34,1.34,0,0,1,339.34,12Z" fill="#212529"/><path id="Path_641" data-name="Path 641" d="M349.72,27a6.63,6.63,0,0,0,1-.07,6.41,6.41,0,0,0,.76-.16v1.49a3.74,3.74,0,0,1-.93.24,6.83,6.83,0,0,1-1.1.11q-3.74,0-3.73-3.93V17h-1.84v-.94l1.84-.81.82-2.74h1.12v3h3.73V17h-3.73v7.56a2.59,2.59,0,0,0,.55,1.78A1.92,1.92,0,0,0,349.72,27Z" fill="#212529"/><path id="Path_642" data-name="Path 642" d="M362,28.36l-.39-1.82h-.09a5.52,5.52,0,0,1-1.92,1.64,6.07,6.07,0,0,1-2.38.42,4.31,4.31,0,0,1-3-1,3.58,3.58,0,0,1-1.08-2.8q0-3.89,6.22-4.07l2.18-.07v-.8a3.19,3.19,0,0,0-.66-2.23,2.65,2.65,0,0,0-2.07-.73,8.38,8.38,0,0,0-3.63,1l-.6-1.49a9.26,9.26,0,0,1,4.34-1.1,4.84,4.84,0,0,1,3.4,1,4.23,4.23,0,0,1,1.12,3.27v8.76ZM357.56,27a3.94,3.94,0,0,0,2.85-1,3.69,3.69,0,0,0,1-2.79V22l-1.95.09a7.06,7.06,0,0,0-3.35.72,2.17,2.17,0,0,0-1,2,2,2,0,0,0,.63,1.61,2.73,2.73,0,0,0,1.8.55Z" fill="#212529"/><path id="Path_643" data-name="Path 643" d="M369.36,28.36h-1.94V10.13h1.94Z" fill="#212529"/><path id="Path_644" data-name="Path 644" d="M177.89,64.36V47.23h2V62.56h7.56v1.8Z" fill="#212529"/><path id="Path_645" data-name="Path 645" d="M192,64.36h-1.94V51.52H192ZM189.9,48a1.27,1.27,0,0,1,.34-1,1.2,1.2,0,0,1,1.62,0,1.26,1.26,0,0,1,.34,1,1.27,1.27,0,0,1-.34,1,1.2,1.2,0,0,1-1.62,0A1.36,1.36,0,0,1,189.9,48Z" fill="#212529"/><path id="Path_646" data-name="Path 646" d="M202.11,51.31A4.76,4.76,0,0,1,206,53a7.56,7.56,0,0,1,1.4,4.89A7.6,7.6,0,0,1,206,62.85a4.75,4.75,0,0,1-3.91,1.75,5.69,5.69,0,0,1-2.3-.46,4.37,4.37,0,0,1-1.73-1.43h-.15l-.39,1.65h-1.4V46.13h1.94v4.43c0,1,0,1.89-.09,2.68h.09A4.59,4.59,0,0,1,202.11,51.31Zm-.27,1.63A3.39,3.39,0,0,0,199,54.09a6.37,6.37,0,0,0-.87,3.84,6.39,6.39,0,0,0,.9,3.88A3.42,3.42,0,0,0,201.88,63a3,3,0,0,0,2.67-1.3,6.69,6.69,0,0,0,.88-3.76,6.45,6.45,0,0,0-.88-3.74A3.1,3.1,0,0,0,201.84,52.94Z" fill="#212529"/><path id="Path_647" data-name="Path 647" d="M216.72,51.29a7.2,7.2,0,0,1,1.53.14l-.27,1.8a6.64,6.64,0,0,0-1.41-.18,3.44,3.44,0,0,0-2.67,1.27,4.63,4.63,0,0,0-1.1,3.15v6.89h-1.94V51.52h1.6l.22,2.38h.1A5.62,5.62,0,0,1,214.5,52,3.87,3.87,0,0,1,216.72,51.29Z" fill="#212529"/><path id="Path_648" data-name="Path 648" d="M228.55,64.36l-.39-1.82h-.09a5.43,5.43,0,0,1-1.92,1.64,6.07,6.07,0,0,1-2.38.42,4.31,4.31,0,0,1-3-1,3.61,3.61,0,0,1-1.08-2.8c0-2.59,2.08-4,6.22-4.07l2.18-.07v-.8a3.18,3.18,0,0,0-.65-2.23,2.65,2.65,0,0,0-2.08-.73,8.38,8.38,0,0,0-3.63,1l-.6-1.49a9.18,9.18,0,0,1,4.35-1.1,4.86,4.86,0,0,1,3.4,1A4.23,4.23,0,0,1,230,55.6v8.76ZM224.16,63A3.94,3.94,0,0,0,227,62a3.69,3.69,0,0,0,1-2.79V58l-2,.09a7.06,7.06,0,0,0-3.35.72,2.16,2.16,0,0,0-1,2,2,2,0,0,0,.63,1.61,2.7,2.7,0,0,0,1.8.55Z" fill="#212529"/><path id="Path_649" data-name="Path 649" d="M239.87,51.29a7.24,7.24,0,0,1,1.54.14l-.27,1.8a6.72,6.72,0,0,0-1.41-.18,3.41,3.41,0,0,0-2.67,1.27,4.58,4.58,0,0,0-1.1,3.15v6.89h-2V51.52h1.61l.22,2.38h.1A5.62,5.62,0,0,1,237.66,52,3.86,3.86,0,0,1,239.87,51.29Z" fill="#212529"/><path id="Path_650" data-name="Path 650" d="M241.77,51.52h2.09l2.81,7.32a28.72,28.72,0,0,1,1.15,3.62h.09q.15-.6.63-2t3.2-8.9h2.08L248.3,66.14a7.21,7.21,0,0,1-1.92,3.07,4.05,4.05,0,0,1-2.69.92,8.05,8.05,0,0,1-1.76-.2V68.37a6.39,6.39,0,0,0,1.44.14,3,3,0,0,0,2.87-2.25l.71-1.82Z" fill="#212529"/><path id="Path_651" data-name="Path 651" d="M262.43,64.36V47.23h2V64.36Z" fill="#212529"/><path id="Path_652" data-name="Path 652" d="M277.63,64.36V56.05a3.35,3.35,0,0,0-.72-2.34,2.91,2.91,0,0,0-2.23-.77,3.68,3.68,0,0,0-3,1.09,5.46,5.46,0,0,0-.93,3.6v6.73h-2V51.52h1.58l.31,1.76h.11a3.9,3.9,0,0,1,1.67-1.47,5.25,5.25,0,0,1,2.4-.52A4.09,4.09,0,0,1,279.58,56v8.38Z" fill="#212529"/><path id="Path_653" data-name="Path 653" d="M285.53,64.36h-1.95V51.52h1.95ZM283.42,48a1.23,1.23,0,0,1,.33-1,1.09,1.09,0,0,1,.82-.32,1.17,1.17,0,0,1,.81.32,1.32,1.32,0,0,1,.34,1,1.34,1.34,0,0,1-.34,1,1.17,1.17,0,0,1-.81.32,1.13,1.13,0,0,1-.82-.32A1.31,1.31,0,0,1,283.42,48Z" fill="#212529"/><path id="Path_654" data-name="Path 654" d="M293.8,63a6.63,6.63,0,0,0,1-.07,6.41,6.41,0,0,0,.76-.16v1.49a3.74,3.74,0,0,1-.93.24,7,7,0,0,1-1.1.11q-3.73,0-3.73-3.93V53H288v-.94l1.84-.81.82-2.74h1.12v3h3.72V53h-3.72v7.56a2.54,2.54,0,0,0,.55,1.78A1.91,1.91,0,0,0,293.8,63Z" fill="#212529"/><path id="Path_655" data-name="Path 655" d="M300.08,64.36h-1.94V51.52h1.94ZM298,48a1.27,1.27,0,0,1,.33-1,1.11,1.11,0,0,1,.82-.32,1.17,1.17,0,0,1,.81.32,1.24,1.24,0,0,1,.34,1,1.3,1.3,0,0,1-.34,1,1.17,1.17,0,0,1-.81.32,1.15,1.15,0,0,1-.82-.32A1.35,1.35,0,0,1,298,48Z" fill="#212529"/><path id="Path_656" data-name="Path 656" d="M312.11,64.36l-.39-1.82h-.09a5.55,5.55,0,0,1-1.93,1.64,6,6,0,0,1-2.38.42,4.32,4.32,0,0,1-3-1,3.57,3.57,0,0,1-1.07-2.8q0-3.89,6.22-4.07l2.18-.07v-.8a3.24,3.24,0,0,0-.66-2.23,2.65,2.65,0,0,0-2.07-.73,8.38,8.38,0,0,0-3.63,1l-.6-1.49a9,9,0,0,1,2.07-.81,9.18,9.18,0,0,1,2.27-.29,4.84,4.84,0,0,1,3.4,1,4.23,4.23,0,0,1,1.12,3.27v8.76ZM307.71,63a3.92,3.92,0,0,0,2.85-1,3.69,3.69,0,0,0,1-2.79V58l-1.94.09a7.06,7.06,0,0,0-3.35.72,2.14,2.14,0,0,0-1,2,2,2,0,0,0,.63,1.61,2.69,2.69,0,0,0,1.79.55Z" fill="#212529"/><path id="Path_657" data-name="Path 657" d="M321.72,63a6.47,6.47,0,0,0,1.76-.23v1.49a3.82,3.82,0,0,1-.94.24,6.72,6.72,0,0,1-1.1.11c-2.48,0-3.73-1.31-3.73-3.93V53h-1.84v-.94l1.84-.81.82-2.74h1.13v3h3.73V53h-3.73v7.56a2.59,2.59,0,0,0,.55,1.78A1.91,1.91,0,0,0,321.72,63Z" fill="#212529"/><path id="Path_658" data-name="Path 658" d="M328,64.36h-1.95V51.52H328ZM325.89,48a1.2,1.2,0,0,1,.33-1,1.08,1.08,0,0,1,.82-.32,1.13,1.13,0,0,1,.8.32,1.24,1.24,0,0,1,.34,1,1.26,1.26,0,0,1-.34,1,1.19,1.19,0,0,1-1.62,0A1.31,1.31,0,0,1,325.89,48Z" fill="#212529"/><path id="Path_659" data-name="Path 659" d="M334.94,64.36l-4.88-12.84h2.09l2.76,7.62a34.13,34.13,0,0,1,1.1,3.47h.1a25.48,25.48,0,0,1,.8-2.57q.69-2,3.09-8.52h2.08l-4.87,12.84Z" fill="#212529"/><path id="Path_660" data-name="Path 660" d="M349.57,64.6a6,6,0,0,1-4.5-1.74,6.72,6.72,0,0,1-1.64-4.81A7.43,7.43,0,0,1,345,53.11a5.1,5.1,0,0,1,4.12-1.82,4.83,4.83,0,0,1,3.82,1.59,6.06,6.06,0,0,1,1.4,4.18v1.23h-8.84a5.1,5.1,0,0,0,1.13,3.44,4,4,0,0,0,3.06,1.17,10.33,10.33,0,0,0,4.1-.87v1.73a10.21,10.21,0,0,1-2,.64A11,11,0,0,1,349.57,64.6ZM349,52.91a3.2,3.2,0,0,0-2.47,1,4.7,4.7,0,0,0-1.08,2.79h6.72a4.34,4.34,0,0,0-.82-2.81,2.89,2.89,0,0,0-2.35-1Z" fill="#212529"/></g><path id="Rectangle" d="M0,0H160V80H0Z" fill="#1661ab"/><g id="CDLI"><path id="Path_624" data-name="Path 624" d="M45.26,26.81a9.21,9.21,0,0,0-7.59,3.42q-2.76,3.42-2.76,9.44,0,6.3,2.64,9.54t7.71,3.24A20.56,20.56,0,0,0,49.48,52c1.36-.29,2.78-.67,4.25-1.12v4.8a25.9,25.9,0,0,1-9.15,1.52q-7.51,0-11.55-4.55t-4-13a21.26,21.26,0,0,1,1.94-9.36,14.16,14.16,0,0,1,5.68-6.14A17.16,17.16,0,0,1,45.32,22,21.6,21.6,0,0,1,55,24.2l-2,4.67a28.3,28.3,0,0,0-3.68-1.43A12.71,12.71,0,0,0,45.26,26.81Z" fill="#fff"/><path id="Path_625" data-name="Path 625" d="M89,39.3q0,8.48-4.71,13T70.69,56.76H61.11V22.49H71.7q8.19,0,12.73,4.41T89,39.3Zm-5.91.19q0-12.3-11.51-12.3H66.71V52.05h4q12.38,0,12.38-12.56Z" fill="#fff"/><path id="Path_626" data-name="Path 626" d="M96.36,56.76V22.49H102V52h14.5v4.8Z" fill="#fff"/><path id="Path_627" data-name="Path 627" d="M122.37,56.76V22.49H128V56.76Z" fill="#fff"/></g></g></svg>
