<svg width="160" height="80" viewBox="0 0 160 80" fill="none" xmlns="http://www.w3.org/2000/svg">
<rect width="160" height="80" fill="#1661AB"/>
<path d="M48.1016 25.0469C44.8828 25.0469 42.3516 26.1875 40.5078 28.4688C38.6641 30.75 37.7422 33.8984 37.7422 37.9141C37.7422 42.1172 38.625 45.2969 40.3906 47.4531C42.1719 49.6094 44.7422 50.6875 48.1016 50.6875C49.5547 50.6875 50.9609 50.5469 52.3203 50.2656C53.6797 49.9688 55.0938 49.5938 56.5625 49.1406V53.9453C53.875 54.9609 50.8281 55.4688 47.4219 55.4688C42.4062 55.4688 38.5547 53.9531 35.8672 50.9219C33.1797 47.875 31.8359 43.5234 31.8359 37.8672C31.8359 34.3047 32.4844 31.1875 33.7812 28.5156C35.0938 25.8438 36.9844 23.7969 39.4531 22.375C41.9219 20.9531 44.8203 20.2422 48.1484 20.2422C51.6484 20.2422 54.8828 20.9766 57.8516 22.4453L55.8359 27.1094C54.6797 26.5625 53.4531 26.0859 52.1562 25.6797C50.875 25.2578 49.5234 25.0469 48.1016 25.0469ZM91.8125 37.5391C91.8125 43.1953 90.2422 47.5234 87.1016 50.5234C83.9609 53.5078 79.4375 55 73.5312 55H63.9453V20.7344H74.5391C79.9922 20.7344 84.2344 22.2031 87.2656 25.1406C90.2969 28.0781 91.8125 32.2109 91.8125 37.5391ZM85.9062 37.7266C85.9062 29.5234 82.0703 25.4219 74.3984 25.4219H69.5469V50.2891H73.5312C81.7812 50.2891 85.9062 46.1016 85.9062 37.7266ZM99.1953 55V20.7344H104.797V50.1953H119.305V55H99.1953ZM125.211 55V20.7344H130.812V55H125.211Z" fill="white"/>
</svg>
