<?xml version="1.0" encoding="UTF-8" standalone="no"?>
<!-- Created with Inkscape (http://www.inkscape.org/) -->

<svg
   xmlns:dc="http://purl.org/dc/elements/1.1/"
   xmlns:cc="http://creativecommons.org/ns#"
   xmlns:rdf="http://www.w3.org/1999/02/22-rdf-syntax-ns#"
   xmlns:svg="http://www.w3.org/2000/svg"
   xmlns="http://www.w3.org/2000/svg"
   xmlns:sodipodi="http://sodipodi.sourceforge.net/DTD/sodipodi-0.dtd"
   xmlns:inkscape="http://www.inkscape.org/namespaces/inkscape"
   width="210mm"
   height="297mm"
   viewBox="0 0 210 297"
   version="1.1"
   id="svg8"
   inkscape:version="0.92.5 (2060ec1f9f, 2020-04-08)"
   sodipodi:docname="rotate.svg">
  <defs
     id="defs2" />
  <sodipodi:namedview
     id="base"
     pagecolor="#ffffff"
     bordercolor="#666666"
     borderopacity="1.0"
     inkscape:pageopacity="0.0"
     inkscape:pageshadow="2"
     inkscape:zoom="0.35"
     inkscape:cx="-85.714286"
     inkscape:cy="560"
     inkscape:document-units="mm"
     inkscape:current-layer="layer1"
     showgrid="false"
     inkscape:window-width="1920"
     inkscape:window-height="1015"
     inkscape:window-x="0"
     inkscape:window-y="0"
     inkscape:window-maximized="1" />
  <metadata
     id="metadata5">
    <rdf:RDF>
      <cc:Work
         rdf:about="">
        <dc:format>image/svg+xml</dc:format>
        <dc:type
           rdf:resource="http://purl.org/dc/dcmitype/StillImage" />
        <dc:title></dc:title>
      </cc:Work>
    </rdf:RDF>
  </metadata>
  <g
     inkscape:label="Layer 1"
     inkscape:groupmode="layer"
     id="layer1">
    <g
       inkscape:label="Layer 1"
       id="layer1-7"
       transform="matrix(0.35272357,0,0,0.35272357,24.853409,1.2134572)"
       style="fill:#ffffff;fill-opacity:1">
	<g
   inkscape:label="Layer 1"
   transform="matrix(1.1226563,0,0,1.1226563,-22.661629,-21.315544)"
   id="layer1-3"
   style="fill:#ffffff;fill-opacity:1">
		<g
   id="g1421"
   style="fill:#ffffff;fill-opacity:1">
			<path
   id="path1411"
   d="m 71.326,362.222 c 1.82,-9.09 4.509,-17.836 9.55,-25.755 10.632,-16.702 25.642,-28.479 42.703,-37.861 5.194,-2.857 11.752,-0.434 14.553,4.657 2.927,5.32 1.253,11.446 -4.036,15.073 -6.684,4.583 -13.664,8.813 -19.909,13.936 -9.613,7.885 -17.277,17.33 -19.752,30.048 -1.762,9.061 0.417,17.37 4.982,25.129 7.248,12.32 18.122,20.864 30.163,27.991 23.516,13.917 49.271,21.492 75.97,26.273 0.361,0.065 0.743,0.008 1.525,0.008 0,-8.768 -0.01,-17.481 0.009,-26.193 0.003,-1.496 -0.068,-3.031 0.227,-4.479 1.67,-8.187 10.535,-11.579 17.906,-6.728 13.767,9.061 27.443,18.263 41.158,27.403 8.104,5.4 16.239,10.754 24.311,16.204 8.623,5.822 8.615,14.818 -0.07,20.631 -21.585,14.445 -43.228,28.802 -64.82,43.236 -4.037,2.698 -8.186,3.73 -12.66,1.33 -4.582,-2.457 -6.145,-6.511 -6.094,-11.554 0.109,-10.745 0.034,-21.491 0.034,-32.236 0,-1.356 0,-2.713 0,-3.586 -13.715,-3.325 -27.163,-6.069 -40.302,-9.88 C 141.757,448.613 118.24,438.125 98.395,420.739 84.602,408.655 74.457,394.316 71.837,375.6 c -0.066,-0.474 -0.336,-0.92 -0.511,-1.378 0,-4 0,-8.001 0,-12 z"
   inkscape:connector-curvature="0"
   style="clip-rule:evenodd;fill-rule:evenodd;fill:#ffffff;fill-opacity:1" />

			<path
   id="path1413"
   d="m 162.076,217.925 c 1.483,0.635 2.502,1.01 3.469,1.493 27.913,13.935 55.816,27.889 83.738,41.805 1.781,0.888 2.871,1.73 2.865,4.117 -0.105,35.989 -0.074,71.979 -0.081,107.968 0,0.371 -0.07,0.742 -0.162,1.661 -1.33,-0.618 -2.507,-1.131 -3.654,-1.705 -26.01,-12.998 -51.985,-26.064 -78.047,-38.955 -5.72,-2.828 -8.221,-6.958 -8.193,-13.355 0.14,-32.99 0.065,-65.98 0.065,-98.971 0,-1.199 0,-2.399 0,-4.058 z"
   inkscape:connector-curvature="0"
   style="clip-rule:evenodd;fill-rule:evenodd;fill:#ffffff;fill-opacity:1" />

			<path
   id="path1415"
   d="m 364.406,217.996 c 0.069,1.469 0.163,2.545 0.163,3.62 0.008,33.368 -0.03,66.735 0.042,100.102 0.012,5.768 -2.372,9.676 -7.523,12.239 -26.586,13.229 -53.132,26.54 -79.693,39.818 -0.758,0.378 -1.539,0.71 -2.661,1.224 -0.064,-1.426 -0.152,-2.488 -0.152,-3.55 -0.007,-35.117 0.007,-70.233 -0.037,-105.35 -0.003,-2.124 0.208,-3.569 2.496,-4.703 28.283,-14.021 56.497,-28.183 84.733,-42.299 0.746,-0.373 1.541,-0.649 2.632,-1.101 z"
   inkscape:connector-curvature="0"
   style="clip-rule:evenodd;fill-rule:evenodd;fill:#ffffff;fill-opacity:1" />

			<path
   id="path1417"
   d="m 352.902,198.206 c -1.39,0.762 -2.431,1.379 -3.512,1.919 -27.563,13.786 -55.144,27.536 -82.667,41.397 -2.34,1.178 -4.123,1.31 -6.536,0.094 -28.627,-14.428 -57.318,-28.728 -86.604,-43.367 1.404,-0.789 2.38,-1.392 3.402,-1.904 26.666,-13.348 53.352,-26.655 79.99,-40.058 4.106,-2.065 8.001,-2.359 12.155,-0.277 27.209,13.64 54.442,27.233 81.661,40.854 0.635,0.318 1.207,0.763 2.111,1.342 z"
   inkscape:connector-curvature="0"
   style="clip-rule:evenodd;fill-rule:evenodd;fill:#ffffff;fill-opacity:1" />

			<path
   id="path1419"
   d="m 455.385,365.24 c -0.218,19.202 -6.719,33.081 -17.265,45.243 -15.012,17.31 -34.277,28.426 -55.065,37.205 -15.683,6.624 -31.988,11.26 -48.628,14.757 -7.243,1.521 -13.327,-2.073 -14.67,-8.643 -1.28,-6.259 2.878,-11.936 10.027,-13.426 21.232,-4.424 41.768,-10.842 60.967,-21.111 10.859,-5.808 20.919,-12.704 29.24,-21.906 1.088,-1.203 2.134,-2.451 3.127,-3.734 12.984,-16.768 12.931,-34.066 -0.22,-50.742 -7.783,-9.868 -17.737,-17.137 -28.472,-23.44 -5.872,-3.448 -8.259,-7.887 -7.079,-13.104 1.541,-6.809 8.957,-11.235 15.057,-7.927 22.57,12.243 41.831,27.903 50.304,53.423 1.709,5.148 2.16,10.712 2.677,13.405 z"
   inkscape:connector-curvature="0"
   style="clip-rule:evenodd;fill-rule:evenodd;fill:#ffffff;fill-opacity:1" />

		</g>

	</g>

	<g
   transform="matrix(0.26458333,0,0,0.26458333,383.5778,17.607561)"
   id="g265"
   style="fill:#ffffff;fill-opacity:1">
		
			
		
		
		
			
		
	</g>

</g>
  </g>
  <style
     id="style238"
     type="text/css">
	.st0{fill:#FFFFFF;stroke:#000000;stroke-width:8;stroke-miterlimit:10;}
	.st1{fill:#FFFFFF;}
</style>
  <style
     id="style470"
     type="text/css">
	.st0{fill:#FFFFFF;stroke:#000000;stroke-width:8;stroke-miterlimit:10;}
	.st1{fill:#FFFFFF;}
</style>
</svg>
